/vscmnt/brussel_pixiu_data/_data_brussel/112/vsc11236/PredSimResults/SUBJ09opt3D/expIG/worker_08.mot
version=1
nRows=5
nColumns=50
inDegrees=yes
endheader
                time	         pelvis_tilt	         pelvis_list	     pelvis_rotation	           pelvis_tx	           pelvis_ty	           pelvis_tz	       hip_flexion_r	     hip_adduction_r	      hip_rotation_r	        knee_angle_r	       ankle_angle_r	         mtp_angle_r	       hip_flexion_l	     hip_adduction_l	      hip_rotation_l	        knee_angle_l	       ankle_angle_l	         mtp_angle_l	    lumbar_extension	      lumbar_bending	     lumbar_rotation	 ercspn_r/activation	 intobl_r/activation	 extobl_r/activation	    abd_r/activation	    add_r/activation	hamstrings_r/activation	bifemsh_r/activation	glut_max_r/activation	iliopsoas_r/activation	rect_fem_r/activation	  vasti_r/activation	gastroc_r/activation	 soleus_r/activation	tib_ant_r/activation	 ercspn_l/activation	 intobl_l/activation	 extobl_l/activation	    abd_l/activation	    add_l/activation	hamstrings_l/activation	bifemsh_l/activation	glut_max_l/activation	iliopsoas_l/activation	rect_fem_l/activation	  vasti_l/activation	gastroc_l/activation	 soleus_l/activation	tib_ant_l/activation	
          0.00000000	         -4.57743096	         -1.15983899	          8.72245154	          0.00000000	          0.98615786	         -0.00328501	         29.81614252	         -1.63646505	         -8.94342501	         -6.68181939	          4.53338499	          0.24914347	        -14.83494942	         -2.70980349	         -3.88326548	         -9.61010236	          2.76253794	         38.21038728	        -13.31096942	         -0.69752154	         -6.69924885	          0.03443993	          0.14782106	          0.02558936	          0.01095943	          0.22561438	          0.07003636	          0.14366962	          0.10469240	          0.13344342	          0.00999999	          0.00999999	          0.01451181	          0.00999999	          0.33568746	          0.04594448	          0.00999999	          0.00999999	          0.02536905	          0.01204649	          0.02054958	          0.18803948	          0.01013306	          0.00999999	          0.00999999	          0.00999999	          0.31384137	          0.20574465	          0.01215230	
          0.01227901	         -4.58929573	         -1.30057329	          8.72691527	          0.02069580	          0.98386419	         -0.00264708	         29.74971925	         -1.45391839	         -9.09169832	         -8.61817611	          4.11772491	          0.20951067	        -15.46475858	         -3.08553612	         -4.32337927	        -10.45809383	          1.50798340	         39.82971160	        -12.78502806	         -0.24829617	         -6.91068426	          0.02858915	          0.12270870	          0.02124215	          0.08465440	          0.18728623	          0.06914825	          0.11926253	          0.14742010	          0.11077359	          0.00999999	          0.00999999	          0.01204649	          0.01204649	          0.37821165	          0.03813927	          0.00999999	          0.00999999	          0.02105927	          0.00999999	          0.01790705	          0.15609468	          0.00999999	          0.01511672	          0.00999999	          0.00999999	          0.27742542	          0.17891639	          0.01008782	
          0.02455802	         -4.58356029	         -1.44555223	          8.69642906	          0.04156164	          0.98190144	         -0.00192043	         29.61318579	         -1.25742470	         -9.21115732	        -10.46493487	          3.55983747	          0.20133199	        -15.86250541	         -3.48491414	         -4.78445354	        -11.75287010	          0.16530537	         41.31062712	        -12.25688344	          0.20432359	         -7.09118984	          0.02410265	          0.10186252	          0.01763346	          0.14344544	          0.21983550	          0.05740110	          0.09900179	          0.18783115	          0.09195499	          0.00999999	          0.00999999	          0.00999999	          0.00999999	          0.42484876	          0.05307324	          0.00999999	          0.00999999	          0.01748165	          0.00999999	          0.01486494	          0.12957677	          0.00999999	          0.05421258	          0.00999999	          0.00999999	          0.23029543	          0.14852145	          0.00999999	
          0.03683703	         -4.56178204	         -1.58822875	          8.63345566	          0.06224185	          0.98047164	         -0.00109120	         29.55601699	         -1.05898009	         -9.30500621	        -12.45692187	          3.02463893	          0.16417954	        -15.90789558	         -3.91072081	         -5.25414948	        -13.67139099	         -1.21364557	         42.47240249	        -11.76865702	          0.65376720	         -7.23960525	          0.04135308	          0.08455776	          0.01463782	          0.19261169	          0.28576816	          0.05314773	          0.08218302	          0.20728665	          0.07633335	          0.00999999	          0.08710495	          0.00999999	          0.00999999	          0.44542329	          0.09412037	          0.00999999	          0.00999999	          0.01451181	          0.07793444	          0.01866288	          0.10756382	          0.00999999	          0.09443872	          0.00999999	          0.00999999	          0.19117204	          0.12329011	          0.00999999	
          0.04911604	         -4.52670444	         -1.72183588	          8.54246416	          0.08254216	          0.97972611	         -0.00018254	         29.54804188	         -0.86149283	         -9.36307249	        -14.57949510	          2.83602216	          0.12051831	        -15.51476487	         -4.36378986	         -5.75836205	        -16.33596022	         -2.58008603	         43.04332239	        -11.33838740	          1.09401186	         -7.35620515	          0.03432787	          0.07019280	          0.01215110	          0.21577077	          0.29586221	          0.04865420	          0.06822149	          0.21851106	          0.06336558	          0.00999999	          0.19307508	          0.00999999	          0.00999999	          0.44546446	          0.10985083	          0.00999999	          0.00999999	          0.01204649	          0.15051876	          0.01549237	          0.08929050	          0.00999999	          0.08024451	          0.00999999	          0.00999999	          0.15869507	          0.10234516	          0.00999999	
